<svg width="197" height="189" viewBox="0 0 197 189" fill="none" xmlns="http://www.w3.org/2000/svg">
<path fill-rule="evenodd" clip-rule="evenodd" d="M20.5336 0H176.466L197 56.0009V73.875C197 82.1008 193.91 89.7061 188.792 95.3994V188.792H8.20833V95.3994C3.09005 89.7061 0 82.1008 0 73.875V56.0009L20.5336 0ZM166.219 105.536C168.333 105.536 170.392 105.319 172.375 104.908V172.375H131.333V123.125H65.6667V172.375H24.625V104.908C26.6084 105.319 28.6663 105.536 30.7812 105.536C39.7972 105.536 47.779 101.602 53.3542 95.3994C58.9294 101.602 66.9112 105.536 75.9271 105.536C84.9431 105.536 92.9249 101.602 98.5 95.3994C104.075 101.602 112.057 105.536 121.073 105.536C130.089 105.536 138.071 101.602 143.646 95.3994C149.221 101.602 157.203 105.536 166.219 105.536ZM82.0833 172.375H114.917V139.542H82.0833V172.375ZM180.583 65.6667V73.875C180.583 82.5923 173.859 89.1195 166.219 89.1195C158.578 89.1195 151.854 82.5923 151.854 73.875V65.6667H180.583ZM177.04 49.25L165.001 16.4167H31.9997L19.9608 49.25H177.04ZM16.4167 65.6667V73.875C16.4167 82.5923 23.1408 89.1195 30.7812 89.1195C38.4217 89.1195 45.1458 82.5923 45.1458 73.875V65.6667H16.4167ZM61.5625 65.6667V73.875C61.5625 82.5923 68.2867 89.1195 75.9271 89.1195C83.5674 89.1195 90.2917 82.5923 90.2917 73.875V65.6667H61.5625ZM106.708 65.6667V73.875C106.708 82.5923 113.433 89.1195 121.073 89.1195C128.713 89.1195 135.438 82.5923 135.438 73.875V65.6667H106.708Z" fill="#22C55E"/>
</svg>
